<svg width="25" height="24" viewBox="0 0 25 24" fill="none" xmlns="http://www.w3.org/2000/svg">
<g id="Logo">
<path id="Vector" d="M24.2628 12.2759C24.2628 11.4602 24.1966 10.6401 24.0555 9.83759H12.7368V14.4586H19.2185C18.9495 15.9489 18.0853 17.2673 16.8198 18.1051V21.1034H20.6868C22.9576 19.0134 24.2628 15.9269 24.2628 12.2759Z" fill="white"/>
<path id="Vector_2" d="M12.7373 24.0002C15.9737 24.0002 18.7031 22.9375 20.6917 21.1033L16.8247 18.1049C15.7488 18.8369 14.3599 19.2513 12.7417 19.2513C9.61105 19.2513 6.95663 17.1393 6.00421 14.2997H2.01376V17.3906C4.05088 21.4428 8.20006 24.0002 12.7373 24.0002Z" fill="white"/>
<path id="Vector_3" d="M5.99972 14.3001C5.49706 12.8098 5.49706 11.196 5.99972 9.7056V6.61465H2.01368C0.311682 10.0054 0.311682 14.0003 2.01368 17.3911L5.99972 14.3001Z" fill="white"/>
<path id="Vector_4" d="M12.7373 4.74951C14.4481 4.72305 16.1016 5.36681 17.3406 6.54852L20.7667 3.12246C18.5973 1.08535 15.718 -0.0346186 12.7373 0.000656078C8.20009 0.000656078 4.05091 2.55807 2.01379 6.61466L5.99983 9.7056C6.94784 6.86158 9.60667 4.74951 12.7373 4.74951Z" fill="white"/>
</g>
</svg>
